<?xml version="1.0" encoding="utf-8"?>
<!-- Generator: Adobe Illustrator 28.0.0, SVG Export Plug-In . SVG Version: 6.00 Build 0)  -->
<svg version="1.1" id="Layer_1" xmlns="http://www.w3.org/2000/svg" xmlns:xlink="http://www.w3.org/1999/xlink" x="0px" y="0px"
	 viewBox="0 0 24 24" style="enable-background:new 0 0 24 24;" xml:space="preserve">
<style type="text/css">
	.st0{fill:none;}
	.st1{fill:#FFFFFF;}
</style>
<path class="st0" d="M0,0h24v24H0V0z"/>
<path class="st1" d="M21,8c1.1,0,2,0.9,2,2v4c0,1.1-0.9,2-2,2h-1.1c-0.5,4-3.9,7-7.9,7v-2c3.3,0,6-2.7,6-6V9c0-3.3-2.7-6-6-6
	S6,5.7,6,9v7H3c-1.1,0-2-0.9-2-2v-4c0-1.1,0.9-2,2-2h1.1C4.6,3.6,8.6,0.5,13,1.1c3.6,0.5,6.5,3.3,6.9,6.9H21z M7.8,15.8l1.1-1.7
	c1,0.6,2.1,0.9,3.2,0.9c1.1,0,2.2-0.3,3.2-0.9l1.1,1.7C15,16.6,13.5,17,12,17C10.5,17,9,16.6,7.8,15.8z"/>
</svg>
