<?xml version="1.0" encoding="utf-8"?>
<!-- Generator: Adobe Illustrator 28.0.0, SVG Export Plug-In . SVG Version: 6.00 Build 0)  -->
<svg version="1.1" id="Layer_1" xmlns="http://www.w3.org/2000/svg" xmlns:xlink="http://www.w3.org/1999/xlink" x="0px" y="0px"
	 viewBox="0 0 100 100" style="enable-background:new 0 0 100 100;" xml:space="preserve">
<style type="text/css">
	.st0{fill-rule:evenodd;clip-rule:evenodd;fill:#FFFFFF;}
</style>
<path class="st0" d="M0.9,87.9L42.5,4.6c3.1-6.1,11.8-6.1,14.9,0l41.7,83.3c2.1,4.1,0.4,9.1-3.7,11.2c-1.2,0.6-2.4,0.9-3.7,0.9H8.3
	C3.7,100,0,96.3,0,91.7C0,90.4,0.3,89.1,0.9,87.9z M50,33.3c3.1,0,5.6,2.5,5.6,5.6v16.7c0,3.1-2.5,5.6-5.6,5.6
	c-3.1,0-5.6-2.5-5.6-5.6V38.9C44.4,35.8,46.9,33.3,50,33.3z M55.6,77.8c0,3.1-2.5,5.6-5.6,5.6c-3.1,0-5.6-2.5-5.6-5.6
	s2.5-5.6,5.6-5.6C53.1,72.2,55.6,74.7,55.6,77.8z"/>
</svg>
