<?xml version="1.0" encoding="utf-8"?>
<!-- Generator: Adobe Illustrator 28.0.0, SVG Export Plug-In . SVG Version: 6.00 Build 0)  -->
<svg version="1.1" id="Layer_1" xmlns="http://www.w3.org/2000/svg" xmlns:xlink="http://www.w3.org/1999/xlink" x="0px" y="0px"
	 viewBox="0 0 96 96" style="enable-background:new 0 0 96 96;" xml:space="preserve">
<style type="text/css">
	.st0{fill-rule:evenodd;clip-rule:evenodd;fill:#FFFFFF;}
</style>
<path class="st0" d="M2.2,83.4L41,5.6c2.9-5.7,11-5.7,13.9,0l38.9,77.7c2,3.8,0.4,8.5-3.5,10.5c-1.1,0.6-2.2,0.8-3.5,0.8H9.1
	c-4.3,0-7.7-3.5-7.7-7.7C1.3,85.7,1.6,84.5,2.2,83.4z M48,32.4c2.9,0,5.2,2.3,5.2,5.2v15.6c0,2.9-2.3,5.2-5.2,5.2
	c-2.9,0-5.2-2.3-5.2-5.2V37.6C42.8,34.7,45.1,32.4,48,32.4z M53.2,73.9c0,2.9-2.3,5.2-5.2,5.2c-2.9,0-5.2-2.3-5.2-5.2
	c0-2.9,2.3-5.2,5.2-5.2C50.9,68.7,53.2,71.1,53.2,73.9z"/>
</svg>
