<?xml version="1.0" encoding="utf-8"?>
<!-- Generator: Adobe Illustrator 28.0.0, SVG Export Plug-In . SVG Version: 6.00 Build 0)  -->
<svg version="1.1" id="Layer_1" xmlns="http://www.w3.org/2000/svg" xmlns:xlink="http://www.w3.org/1999/xlink" x="0px" y="0px"
	 viewBox="0 0 96 96" style="enable-background:new 0 0 96 96;" xml:space="preserve">
<style type="text/css">
	.st0{fill:#FFFFFF;}
</style>
<path class="st0" d="M80.3,48H34.8V29.1c0-7.3,5.8-13.3,13.1-13.4c7.3-0.1,13.4,5.9,13.4,13.2v2.9c0,2.4,2,4.4,4.4,4.4h5.9
	c2.4,0,4.4-2,4.4-4.4v-2.9c0-15.4-12.6-28-28-27.9C32.5,1,20.1,13.7,20.1,29.2V48h-4.4c-4.9,0-8.8,3.9-8.8,8.8v29.4
	c0,4.9,3.9,8.8,8.8,8.8h64.6c4.9,0,8.8-3.9,8.8-8.8V56.8C89.1,51.9,85.2,48,80.3,48z M55.3,75.9c0,4.1-3.3,7.3-7.3,7.3
	s-7.3-3.3-7.3-7.3v-8.8c0-4.1,3.3-7.3,7.3-7.3s7.3,3.3,7.3,7.3V75.9z"/>
</svg>
